<?xml version="1.0" standalone="no"?>
<!DOCTYPE svg PUBLIC "-//W3C//DTD SVG 20010904//EN"
 "http://www.w3.org/TR/2001/REC-SVG-20010904/DTD/svg10.dtd">
<svg version="1.0" xmlns="http://www.w3.org/2000/svg"
 width="1082.000000pt" height="1082.000000pt" viewBox="0 0 1082.000000 1082.000000"
 preserveAspectRatio="xMidYMid meet">
<metadata>
Created by potrace 1.14, written by Peter Selinger 2001-2017
</metadata>
<g transform="translate(0.000000,1082.000000) scale(0.100000,-0.100000)"
fill="#000000" stroke="none">
<path d="M5099 10806 c-2 -3 -49 -7 -104 -11 -92 -5 -152 -11 -215 -20 -14 -2
-50 -7 -80 -10 -47 -5 -209 -31 -315 -50 -305 -55 -793 -201 -1050 -315 -11
-5 -58 -25 -105 -45 -92 -40 -377 -181 -450 -222 -468 -265 -824 -536 -1201
-913 -277 -277 -472 -514 -677 -821 -396 -596 -683 -1295 -807 -1969 -3 -14
-7 -36 -10 -50 -14 -67 -39 -237 -50 -340 -3 -30 -7 -71 -10 -90 -14 -122 -20
-271 -20 -530 0 -258 10 -533 20 -550 1 -3 6 -36 9 -75 3 -38 8 -81 10 -95 3
-14 12 -72 20 -130 17 -114 24 -157 31 -180 2 -8 7 -31 10 -50 22 -139 142
-581 181 -667 8 -17 14 -36 14 -43 0 -10 91 -249 124 -325 99 -227 247 -518
333 -653 18 -29 33 -55 33 -58 0 -8 199 -305 216 -321 8 -8 14 -18 14 -22 0
-4 8 -17 18 -29 10 -11 27 -33 38 -47 10 -15 24 -32 29 -39 6 -6 32 -40 60
-76 27 -36 52 -67 55 -70 3 -3 18 -21 34 -40 121 -148 437 -472 581 -596 141
-121 158 -134 280 -229 506 -389 1089 -690 1710 -881 87 -27 402 -109 450
-117 31 -6 121 -23 165 -32 14 -3 70 -12 125 -20 138 -21 152 -23 220 -30 33
-4 71 -8 85 -10 178 -27 871 -27 1085 0 17 2 59 6 95 10 36 3 72 8 80 10 8 2
35 7 60 10 187 25 376 63 560 111 74 19 142 37 150 39 73 17 419 136 550 190
268 110 588 273 816 415 88 55 183 117 204 132 153 112 366 272 370 277 3 3
52 46 110 96 208 178 496 475 682 705 374 463 691 1034 894 1614 20 56 37 108
40 116 2 8 13 47 25 85 48 161 114 430 134 545 3 19 8 42 10 50 2 8 7 33 10
55 3 23 7 50 9 60 2 11 7 45 11 75 4 30 9 63 10 72 2 9 7 48 10 85 4 37 8 79
11 93 12 72 19 276 19 540 0 264 -4 372 -20 520 -2 25 -7 70 -10 100 -9 79
-17 139 -51 345 -71 431 -242 946 -469 1410 -267 545 -591 995 -1034 1435
-509 507 -1059 878 -1701 1150 -69 29 -134 56 -145 61 -30 13 -211 78 -280
100 -77 25 -225 71 -239 73 -6 2 -31 8 -55 15 -51 14 -321 77 -366 84 -16 3
-52 10 -80 15 -27 6 -72 13 -100 17 -27 3 -59 7 -70 9 -11 2 -45 7 -75 11 -30
4 -65 8 -77 10 -12 2 -57 6 -100 10 -43 4 -89 9 -103 12 -29 6 -735 14 -741 9z
m691 -860 c14 -3 52 -8 85 -11 61 -5 195 -22 250 -31 73 -12 96 -16 190 -35
110 -22 315 -72 385 -95 25 -7 86 -27 135 -43 416 -134 858 -359 1220 -619
133 -96 122 -87 225 -172 155 -127 179 -149 336 -305 145 -145 181 -183 251
-266 l23 -26 -401 1 c-221 0 -405 -1 -410 -4 -7 -5 -28 -94 -74 -305 -2 -11
-6 -31 -10 -45 -3 -14 -7 -34 -9 -45 -36 -167 -106 -484 -110 -495 -3 -8 -7
-28 -10 -45 -3 -16 -7 -39 -10 -50 -8 -35 -45 -199 -50 -225 -3 -14 -7 -34
-10 -45 -2 -11 -23 -105 -46 -210 -23 -104 -43 -197 -45 -205 -2 -8 -13 -58
-24 -110 -11 -52 -41 -189 -66 -305 -26 -115 -48 -217 -50 -225 -2 -8 -17 -78
-34 -155 -16 -77 -37 -169 -45 -205 -8 -36 -17 -76 -20 -90 -9 -47 -46 -215
-56 -255 -10 -40 -86 -385 -94 -427 -2 -13 -9 -43 -15 -68 -5 -25 -12 -56 -15
-70 -4 -20 -61 -279 -70 -315 -1 -5 -8 -36 -15 -68 -7 -32 -14 -57 -16 -55 -3
3 -124 328 -454 1213 -111 297 -206 550 -211 562 -5 12 -41 109 -80 215 -39
106 -75 202 -80 213 -5 11 -41 108 -81 215 -39 107 -75 204 -80 215 -5 11
-103 274 -219 585 -116 311 -230 615 -252 675 -23 61 -47 115 -53 120 -15 13
-523 12 -534 -1 -4 -5 -22 -49 -40 -99 -18 -49 -37 -99 -41 -110 -5 -11 -71
-184 -145 -385 -75 -201 -145 -387 -156 -415 -29 -74 -240 -638 -243 -650 -2
-5 -8 -23 -15 -40 -6 -16 -19 -50 -27 -75 -9 -25 -20 -54 -24 -65 -5 -11 -17
-45 -29 -75 -11 -30 -36 -95 -54 -145 -19 -49 -49 -130 -67 -180 -18 -49 -36
-99 -40 -110 -4 -11 -8 -23 -9 -28 0 -4 -7 -20 -15 -35 -8 -15 -24 -55 -35
-87 -11 -33 -34 -96 -51 -140 -17 -44 -33 -84 -34 -90 -2 -5 -6 -17 -9 -25 -4
-8 -65 -172 -137 -365 -239 -641 -335 -894 -337 -891 -2 2 -26 106 -53 232
-28 126 -55 247 -60 269 -23 102 -54 242 -110 500 -33 154 -65 300 -71 325 -6
25 -13 56 -15 70 -3 14 -12 54 -20 90 -8 36 -19 83 -24 105 -15 67 -42 189
-46 215 -3 14 -7 33 -10 42 -3 9 -7 27 -9 40 -7 34 -44 207 -55 253 -6 22 -48
216 -95 430 -47 215 -91 419 -100 455 -8 36 -35 160 -60 275 -26 116 -55 251
-66 300 -11 50 -22 101 -25 114 -3 12 -12 53 -20 90 -9 36 -18 77 -20 91 -14
83 -27 120 -42 121 -10 0 -194 1 -409 2 -356 0 -392 2 -380 16 47 61 359 379
442 452 260 226 497 394 805 572 75 43 350 177 435 212 50 20 98 41 107 46 29
15 238 87 388 134 54 16 308 80 365 91 22 4 45 8 50 10 28 6 144 27 175 30 19
3 46 7 60 9 14 3 52 7 85 11 33 3 71 8 85 10 14 2 70 7 125 10 55 3 102 8 104
10 6 5 592 -4 621 -10z m-4050 -2186 c29 -135 54 -256 57 -270 2 -14 13 -63
23 -110 10 -47 26 -121 35 -165 10 -44 18 -87 20 -95 2 -8 16 -71 30 -140 14
-69 28 -132 30 -140 2 -8 10 -49 19 -90 38 -182 125 -588 141 -665 3 -11 9
-42 15 -70 5 -27 19 -93 30 -145 11 -52 22 -104 24 -115 3 -11 9 -40 15 -65 5
-25 13 -60 16 -79 3 -19 7 -37 9 -40 2 -3 7 -23 10 -43 3 -21 29 -145 57 -275
28 -131 53 -249 55 -263 3 -14 7 -31 10 -39 2 -8 7 -30 10 -50 3 -20 9 -52 14
-71 5 -19 12 -51 15 -70 3 -19 12 -62 20 -95 8 -33 21 -96 30 -139 9 -44 17
-82 19 -85 2 -3 7 -22 10 -41 3 -19 17 -89 31 -155 14 -66 37 -173 50 -238 14
-64 36 -170 50 -235 13 -64 36 -171 50 -237 15 -66 40 -185 56 -265 17 -80 32
-154 35 -165 2 -11 7 -36 10 -55 3 -19 8 -38 10 -41 2 -3 6 -21 9 -40 3 -19
12 -62 20 -97 8 -34 17 -77 20 -95 3 -17 10 -48 15 -67 5 -19 12 -48 14 -65 3
-16 31 -147 61 -290 48 -224 108 -505 121 -570 3 -18 26 -122 29 -135 3 -14
16 -74 21 -102 8 -40 3 -39 -144 59 -266 175 -489 358 -727 597 -166 167 -236
243 -296 321 -13 17 -26 32 -29 35 -4 3 -47 59 -97 125 -77 103 -137 191 -248
365 -72 113 -190 336 -252 475 -18 39 -43 95 -56 125 -98 220 -223 629 -271
890 -9 47 -18 95 -20 107 -3 11 -8 43 -12 70 -3 26 -8 56 -10 66 -2 10 -6 45
-9 78 -4 33 -8 69 -10 80 -11 57 -20 279 -19 489 0 240 6 345 29 525 10 79 19
150 20 155 1 3 5 25 9 50 90 533 272 1039 542 1510 43 74 82 140 88 147 6 6
38 54 71 106 33 52 63 92 67 88 3 -3 30 -116 58 -251z m7513 93 c211 -334 365
-657 485 -1018 34 -103 80 -257 86 -290 1 -5 5 -19 9 -30 3 -11 8 -31 11 -45
2 -14 16 -77 30 -140 13 -63 27 -135 31 -160 3 -25 8 -56 10 -70 9 -49 14 -86
20 -145 3 -33 8 -71 10 -85 26 -152 25 -723 0 -930 -3 -19 -7 -57 -10 -85 -4
-27 -8 -57 -10 -65 -2 -8 -7 -39 -10 -69 -4 -30 -9 -63 -11 -75 -2 -12 -9 -47
-14 -78 -21 -112 -78 -344 -114 -463 -20 -66 -38 -127 -40 -135 -10 -37 -128
-335 -171 -430 -147 -328 -360 -672 -598 -970 -129 -161 -149 -182 -347 -380
-170 -171 -272 -261 -445 -393 -55 -42 -104 -80 -110 -84 -22 -18 -227 -153
-231 -153 -3 0 -18 -10 -34 -22 -16 -12 -32 -19 -36 -15 -3 3 -1 30 6 59 6 29
17 80 25 113 19 86 43 197 49 225 2 14 9 48 15 75 5 28 21 103 35 168 14 65
28 133 31 150 3 18 10 48 15 67 5 19 12 51 15 70 3 19 12 63 20 98 8 34 17 77
20 95 4 17 10 50 15 72 13 55 58 264 64 295 2 14 11 57 20 95 8 39 17 82 20
95 11 56 48 230 61 290 13 62 37 171 104 485 17 77 33 156 36 175 3 19 9 44
12 55 3 11 7 29 9 40 1 11 16 83 33 160 64 297 72 331 77 360 3 17 9 46 14 65
5 19 11 49 14 65 7 40 11 61 51 245 19 86 36 167 39 181 12 67 48 238 56 269
5 19 12 51 15 70 3 19 15 76 26 125 12 50 22 99 25 110 2 11 10 52 18 90 9 39
18 81 20 95 3 14 7 36 10 50 3 14 8 36 11 50 3 14 7 34 10 45 62 288 164 773
169 800 3 17 19 91 35 165 16 74 32 146 35 160 3 14 7 37 10 51 3 14 20 90 36
170 17 79 42 198 56 264 14 66 27 127 29 135 2 8 4 24 5 35 1 18 3 18 24 -6
13 -15 57 -81 99 -146z m-3744 -1813 c34 -96 66 -184 71 -195 5 -11 77 -209
160 -440 83 -231 169 -467 190 -525 21 -58 71 -195 110 -305 40 -110 87 -240
105 -290 18 -49 99 -274 180 -500 81 -225 151 -419 156 -430 5 -11 35 -94 68
-185 98 -275 281 -784 288 -800 3 -8 7 -17 8 -20 1 -3 4 -12 7 -20 3 -8 26
-71 51 -140 25 -69 87 -240 137 -380 51 -140 97 -266 101 -280 l9 -25 302 2
302 2 -70 -41 c-144 -84 -302 -161 -569 -279 -11 -4 -38 -15 -60 -23 -22 -7
-98 -35 -170 -60 -71 -25 -139 -48 -150 -51 -11 -2 -76 -20 -145 -39 -126 -35
-382 -90 -475 -102 -27 -3 -58 -8 -69 -10 -10 -2 -44 -6 -75 -9 -31 -4 -66 -8
-79 -10 -121 -20 -620 -27 -817 -13 -90 7 -205 20 -307 34 -21 3 -50 7 -65 9
-39 5 -87 13 -168 30 -38 8 -81 16 -95 18 -14 3 -72 17 -130 32 -58 15 -112
28 -120 30 -98 23 -388 124 -555 195 -117 49 -426 202 -466 230 -15 11 -31 20
-36 20 -4 0 -19 9 -32 19 -24 18 -19 19 268 19 161 0 297 4 301 9 4 4 26 60
49 123 24 63 46 124 51 135 5 11 45 119 90 240 44 121 87 236 95 255 8 19 52
139 99 265 117 318 176 477 263 710 41 110 91 243 109 295 19 52 37 102 41
110 3 8 7 20 9 25 2 9 43 117 200 540 15 39 30 79 35 90 11 26 207 556 298
805 39 107 76 204 81 215 10 23 130 345 134 360 2 6 6 17 9 25 4 8 13 33 20
55 13 38 48 130 123 330 18 50 38 104 44 120 15 39 13 41 89 -175z"/>
</g>
</svg>
